<svg width="40.000000" height="40.000000" viewBox="0 0 40 40" fill="none" xmlns="http://www.w3.org/2000/svg" xmlns:xlink="http://www.w3.org/1999/xlink">
	<desc>
			Created with Pixso.
	</desc>
	<defs/>
	<path id="Vector" d="M18.66 5.91C19.14 4.69 20.97 4.69 21.45 5.91L25.12 14.89C25.37 15.06 25.66 15.15 25.96 15.14L33.12 16.53C34.54 16.53 35.66 16.84 34.54 17.67L29.09 22.39C28.85 22.58 28.67 22.83 28.58 23.11C28.49 23.4 28.5 23.7 28.61 23.98L30.6 32.1C31.08 33.41 29.51 34.53 28.33 33.72L20.92 29.2C20.67 29.03 20.37 28.94 20.06 28.94C19.75 28.94 19.44 29.03 19.19 29.2L11.78 33.72C10.6 34.53 9.03 33.41 9.51 32.1L11.5 23.98C11.61 23.7 11.62 23.4 11.53 23.11C11.44 22.83 11.26 22.58 11.02 22.39L5.57 17.67C4.45 16.84 5.07 15.14 6.49 15.14L14.15 15.14C14.45 15.15 14.74 15.06 14.99 14.89C15.24 14.73 15.43 14.5 15.54 14.23L18.66 5.91L18.66 5.91Z" fill="#0069F4" fill-opacity="1.000000" fill-rule="nonzero"/>
	<path id="Vector" d="M21.45 5.91L25.12 14.89C25.37 15.06 25.66 15.15 25.96 15.14L33.12 16.53C34.54 16.53 35.66 16.84 34.54 17.67L29.09 22.39C28.85 22.58 28.67 22.83 28.58 23.11C28.49 23.4 28.5 23.7 28.61 23.98L30.6 32.1C31.08 33.41 29.51 34.53 28.33 33.72L20.92 29.2C20.67 29.03 20.37 28.94 20.06 28.94C19.75 28.94 19.44 29.03 19.19 29.2L11.78 33.72C10.6 34.53 9.03 33.41 9.51 32.1L11.5 23.98C11.61 23.7 11.62 23.4 11.53 23.11C11.44 22.83 11.26 22.58 11.02 22.39L5.57 17.67C4.45 16.84 5.07 15.14 6.49 15.14L14.15 15.14C14.45 15.15 14.74 15.06 14.99 14.89C15.24 14.73 15.43 14.5 15.54 14.23L18.66 5.91L18.66 5.91C19.14 4.69 20.97 4.69 21.45 5.91Z" stroke="#FFFFFF" stroke-opacity="0" stroke-width="4.000000" stroke-linejoin="round"/>
	<path id="Ellipse 3" d="M37 18C37 21.96 34.43 26 28.85 26C24.51 26 21 22.41 21 18C21 13.58 24.51 10 28.85 10C33.18 10 37 13.65 37 18Z" fill="#FFFFFF" fill-opacity="1.000000" fill-rule="nonzero"/>
	<path id="Ellipse 3" d="M27.08 26.31Q27.94 26.5 28.85 26.5Q30.96 26.5 32.67 25.76Q33.63 25.35 34.43 24.72Q34.94 24.31 35.39 23.81Q35.59 23.59 35.77 23.35Q36.54 22.34 36.98 21.08Q37.09 20.77 37.18 20.45Q37.5 19.26 37.5 18Q37.5 17.34 37.39 16.71Q37.22 15.69 36.79 14.71Q36.57 14.21 36.29 13.75Q35.71 12.81 34.9 12.01Q34.2 11.33 33.39 10.82Q32.8 10.45 32.14 10.17Q31.12 9.74 30.05 9.58Q29.46 9.5 28.85 9.5Q27.94 9.5 27.08 9.68Q26.32 9.85 25.59 10.16Q24.95 10.44 24.37 10.82Q23.6 11.32 22.94 11.99Q22.38 12.56 21.94 13.22Q21.47 13.91 21.15 14.69Q20.87 15.37 20.71 16.08Q20.5 17.01 20.5 18Q20.5 18.98 20.71 19.91Q20.87 20.62 21.15 21.3Q21.47 22.08 21.94 22.77Q22.38 23.43 22.94 24Q23.6 24.67 24.37 25.17Q24.95 25.55 25.59 25.83Q26.32 26.14 27.08 26.31ZM28.85 26C34.43 26 37 21.96 37 18C37 13.65 33.18 10 28.85 10C24.51 10 21 13.58 21 18C21 22.41 24.51 26 28.85 26Z" fill="#FFFFFF" fill-opacity="1.000000" fill-rule="evenodd"/>
	<circle id="Ellipse 4" cx="29.000000" cy="18.000000" r="7.000000" fill="#0069F4" fill-opacity="1.000000"/>
</svg>
